<?xml version="1.0" encoding="utf-8"?>
<!-- Generator: Adobe Illustrator 16.0.0, SVG Export Plug-In . SVG Version: 6.00 Build 0)  -->
<!DOCTYPE svg PUBLIC "-//W3C//DTD SVG 1.1//EN" "http://www.w3.org/Graphics/SVG/1.1/DTD/svg11.dtd">
<svg version="1.1" id="Layer_1" xmlns="http://www.w3.org/2000/svg" xmlns:xlink="http://www.w3.org/1999/xlink" x="0px" y="0px"
	 width="25.017px" height="25.017px" viewBox="0 0 25.017 25.017" enable-background="new 0 0 25.017 25.017" xml:space="preserve">
<g>
	<path fill="#FFFFFF" d="M24.001,12.262c0,3.088-1.069,5.741-3.208,7.959c-2.139,2.219-4.743,3.399-7.813,3.541v-8.146h3.833v-3.354
		H12.98V9.866c0-0.39,0.093-0.728,0.28-1.011c0.186-0.284,0.413-0.426,0.679-0.426h2.875V5.075h-2.875
		c-1.189,0-2.206,0.47-3.048,1.411c-0.843,0.941-1.265,2.068-1.265,3.381v2.396H6.751v3.354h2.875v7.773
		c-2.502-0.639-4.565-1.992-6.189-4.06c-1.624-2.067-2.436-4.423-2.436-7.068c0-3.177,1.122-5.887,3.368-8.132
		c2.245-2.245,4.956-3.368,8.132-3.368s5.887,1.123,8.132,3.368S24.001,9.085,24.001,12.262z"/>
</g>
</svg>
