<?xml version="1.0" encoding="utf-8"?>
<!-- Generator: Adobe Illustrator 16.0.0, SVG Export Plug-In . SVG Version: 6.00 Build 0)  -->
<!DOCTYPE svg PUBLIC "-//W3C//DTD SVG 1.1//EN" "http://www.w3.org/Graphics/SVG/1.1/DTD/svg11.dtd">
<svg version="1.1" id="Layer_1" xmlns="http://www.w3.org/2000/svg" xmlns:xlink="http://www.w3.org/1999/xlink" x="0px" y="0px"
	 width="25.017px" height="25.017px" viewBox="0 0 25.017 25.017" enable-background="new 0 0 25.017 25.017" xml:space="preserve">
<g>
	<path fill="#FFFFFF" d="M4.369,4.13c2.245-2.245,4.956-3.368,8.132-3.368s5.887,1.123,8.132,3.368s3.368,4.956,3.368,8.132
		s-1.123,5.888-3.368,8.132c-2.245,2.246-4.956,3.368-8.132,3.368s-5.888-1.122-8.132-3.368c-2.246-2.245-3.368-4.956-3.368-8.132
		S2.123,6.375,4.369,4.13z M16.813,6.512V4.063c-0.479,0.409-1.411,0.666-2.795,0.772c-0.604-0.39-1.305-0.585-2.103-0.585
		c-1.083,0-1.997,0.369-2.742,1.104C8.428,6.091,8.055,7.036,8.055,8.189c0,1.562,0.621,2.698,1.864,3.407
		c-0.302,0.249-0.524,0.528-0.666,0.838C9.111,12.746,9.08,13.101,9.16,13.5c0.08,0.399,0.297,0.785,0.652,1.158
		c-0.639,0.284-1.149,0.679-1.531,1.185c-0.382,0.506-0.572,1.061-0.572,1.664c0,0.958,0.443,1.757,1.331,2.396
		c0.887,0.639,1.96,0.958,3.221,0.958c1.278,0,2.356-0.314,3.234-0.945c0.878-0.63,1.318-1.433,1.318-2.409
		c0-0.922-0.426-1.704-1.278-2.342c-0.852-0.639-1.899-0.976-3.141-1.012c-0.391-0.284-0.612-0.581-0.666-0.892
		c-0.053-0.31,0.053-0.696,0.319-1.158c1.065-0.036,1.948-0.413,2.649-1.131c0.701-0.719,1.051-1.646,1.051-2.782
		c0-0.621-0.106-1.18-0.319-1.677H16.813z M10.105,17.533c0-0.337,0.2-0.63,0.599-0.878s0.918-0.373,1.557-0.373
		c0.639,0,1.158,0.125,1.558,0.373c0.399,0.249,0.599,0.542,0.599,0.878c0,0.355-0.2,0.652-0.599,0.892
		c-0.399,0.24-0.918,0.359-1.558,0.359c-0.639,0-1.158-0.12-1.557-0.359S10.105,17.888,10.105,17.533z M10.904,6.685
		c0.266-0.346,0.603-0.519,1.012-0.519c0.408,0,0.741,0.173,0.998,0.519C13.17,7.031,13.3,7.497,13.3,8.083
		c0,0.604-0.133,1.078-0.399,1.424c-0.266,0.346-0.595,0.519-0.985,0.519c-0.409,0-0.746-0.177-1.012-0.532
		c-0.266-0.355-0.399-0.825-0.399-1.411C10.504,7.497,10.638,7.031,10.904,6.685z"/>
</g>
</svg>
