<?xml version="1.0" encoding="utf-8"?>
<!-- Generator: Adobe Illustrator 16.0.0, SVG Export Plug-In . SVG Version: 6.00 Build 0)  -->
<!DOCTYPE svg PUBLIC "-//W3C//DTD SVG 1.1//EN" "http://www.w3.org/Graphics/SVG/1.1/DTD/svg11.dtd">
<svg version="1.1" id="Layer_1" xmlns="http://www.w3.org/2000/svg" xmlns:xlink="http://www.w3.org/1999/xlink" x="0px" y="0px"
	 width="25.017px" height="25.017px" viewBox="0 0 25.017 25.017" enable-background="new 0 0 25.017 25.017" xml:space="preserve">
<rect x="1.001" y="4.623" fill="none" width="25.017" height="25.016"/>
<path fill="#FFFFFF" d="M17.74,2.002H7.158c-2.915,0-5.286,2.371-5.286,5.286v10.668c0,2.914,2.371,5.286,5.286,5.286H17.74
	c2.915,0,5.286-2.372,5.286-5.286V7.288C23.026,4.373,20.655,2.002,17.74,2.002z M7.158,3.96H17.74c1.835,0,3.329,1.494,3.329,3.328
	v1.82h-5.605c-0.821-0.584-1.824-0.931-2.906-0.931c-1.083,0-2.086,0.346-2.907,0.931H3.83v-1.82C3.83,5.454,5.324,3.96,7.158,3.96z
	 M14.643,13.199c0,1.15-0.936,2.085-2.085,2.085c-1.15,0-2.084-0.935-2.084-2.085c0-1.149,0.935-2.084,2.084-2.084
	C13.707,11.115,14.643,12.05,14.643,13.199z M17.74,21.284H7.158c-1.834,0-3.328-1.493-3.328-3.328v-6.89h4.182
	c-0.305,0.648-0.477,1.371-0.477,2.133c0,2.769,2.253,5.022,5.022,5.022c2.769,0,5.021-2.253,5.021-5.022
	c0-0.762-0.171-1.485-0.477-2.133h3.966v6.89C21.068,19.791,19.575,21.284,17.74,21.284z"/>
<path fill="#FFFFFF" d="M17.871,6.966c0,0.293-0.239,0.532-0.532,0.532h-1.644c-0.293,0-0.532-0.239-0.532-0.532V5.322
	c0-0.292,0.239-0.532,0.532-0.532h1.644c0.293,0,0.532,0.24,0.532,0.532V6.966z"/>
</svg>
