<?xml version="1.0" encoding="utf-8"?>
<!-- Generator: Adobe Illustrator 16.0.0, SVG Export Plug-In . SVG Version: 6.00 Build 0)  -->
<!DOCTYPE svg PUBLIC "-//W3C//DTD SVG 1.1//EN" "http://www.w3.org/Graphics/SVG/1.1/DTD/svg11.dtd">
<svg version="1.1" id="Layer_1" xmlns="http://www.w3.org/2000/svg" xmlns:xlink="http://www.w3.org/1999/xlink" x="0px" y="0px"
	 width="25.017px" height="25.017px" viewBox="0 0 25.017 25.017" enable-background="new 0 0 25.017 25.017" xml:space="preserve">
<g>
	<path fill="#FFFFFF" d="M4.369,4.13c2.245-2.245,4.956-3.368,8.132-3.368s5.887,1.123,8.132,3.368s3.368,4.956,3.368,8.132
		s-1.123,5.888-3.368,8.132c-2.245,2.246-4.956,3.368-8.132,3.368s-5.888-1.122-8.132-3.368c-2.246-2.245-3.368-4.956-3.368-8.132
		S2.123,6.375,4.369,4.13z M7.709,8.429c0.567,0,1.029-0.16,1.384-0.479C9.448,7.63,9.626,7.231,9.626,6.752
		c-0.018-0.497-0.2-0.901-0.546-1.211C8.734,5.23,8.277,5.075,7.709,5.075c-0.568,0-1.03,0.16-1.384,0.479
		C5.97,5.874,5.792,6.272,5.792,6.752c0,0.479,0.173,0.878,0.519,1.198c0.346,0.319,0.803,0.479,1.371,0.479H7.709z M9.147,18.012
		V9.866H6.272v8.146H9.147z M19.688,18.012V13.7c0-1.313-0.302-2.36-0.905-3.141c-0.604-0.781-1.42-1.171-2.449-1.171
		c-0.568,0-1.061,0.156-1.478,0.466c-0.417,0.311-0.723,0.732-0.918,1.265l-0.106-1.251h-2.849l0.08,1.917v6.229h2.875V13.7
		c0-0.585,0.124-1.051,0.373-1.397s0.595-0.519,1.038-0.519c0.976,0,1.464,0.639,1.464,1.917v4.312H19.688z"/>
</g>
</svg>
