<?xml version="1.0" encoding="utf-8"?>
<!-- Generator: Adobe Illustrator 16.0.0, SVG Export Plug-In . SVG Version: 6.00 Build 0)  -->
<!DOCTYPE svg PUBLIC "-//W3C//DTD SVG 1.1//EN" "http://www.w3.org/Graphics/SVG/1.1/DTD/svg11.dtd">
<svg version="1.1" id="Layer_1" xmlns="http://www.w3.org/2000/svg" xmlns:xlink="http://www.w3.org/1999/xlink" x="0px" y="0px"
	 width="25.017px" height="25.017px" viewBox="0 0 25.017 25.017" enable-background="new 0 0 25.017 25.017" xml:space="preserve">
<g>
	<path fill="#FFFFFF" d="M4.369,4.13c2.245-2.245,4.956-3.368,8.132-3.368s5.887,1.123,8.132,3.368s3.368,4.956,3.368,8.132
		s-1.123,5.888-3.368,8.132c-2.245,2.246-4.956,3.368-8.132,3.368s-5.888-1.122-8.132-3.368c-2.246-2.245-3.368-4.956-3.368-8.132
		S2.123,6.375,4.369,4.13z M19.502,9.733c0.586-0.408,1.127-0.967,1.624-1.677c-0.639,0.266-1.269,0.435-1.89,0.506
		c0.692-0.39,1.162-0.994,1.411-1.81c-0.657,0.373-1.34,0.639-2.05,0.798c-0.639-0.692-1.429-1.038-2.369-1.038
		c-0.905,0-1.673,0.319-2.303,0.958c-0.63,0.639-0.945,1.411-0.945,2.316c0,0.266,0.027,0.515,0.08,0.745
		c-2.751-0.142-5.005-1.286-6.762-3.434C6.014,7.63,5.873,8.181,5.873,8.749c0,1.171,0.479,2.076,1.438,2.715
		c-0.497,0-0.985-0.133-1.464-0.399v0.026c0,0.781,0.249,1.473,0.746,2.077c0.497,0.604,1.118,0.985,1.863,1.145
		c-0.231,0.071-0.515,0.106-0.852,0.106c-0.16,0-0.364-0.018-0.612-0.053c0.195,0.657,0.572,1.185,1.131,1.584
		s1.193,0.608,1.903,0.625c-1.26,0.994-2.609,1.491-4.046,1.491c-0.195,0-0.453-0.018-0.772-0.053
		c1.473,0.958,3.141,1.438,5.004,1.438c1.438,0,2.76-0.279,3.967-0.838c1.207-0.559,2.187-1.291,2.941-2.196
		c0.754-0.905,1.34-1.899,1.757-2.981s0.625-2.174,0.625-3.274V9.733z"/>
</g>
</svg>
